<svg width="36" height="36" viewBox="0 0 36 36" fill="none" xmlns="http://www.w3.org/2000/svg">
<path d="M5.62623 33.7071L6.33333 34.4142L7.04044 33.7071L18 22.7475L28.9596 33.7071L29.6667 34.4142L30.3738 33.7071L33.7071 30.3738L34.4142 29.6667L33.7071 28.9596L22.7475 18L33.7071 7.04044L34.4142 6.33333L33.7071 5.62623L30.3738 2.29289L29.6667 1.58579L28.9596 2.29289L18 13.2525L7.04044 2.29289L6.33333 1.58579L5.62623 2.29289L2.29289 5.62623L1.58579 6.33333L2.29289 7.04044L13.2525 18L2.29289 28.9596L1.58579 29.6667L2.29289 30.3738L5.62623 33.7071Z" fill="#DFDEDC" stroke="white" stroke-width="2"/>
</svg>
