<svg width="36" height="25" viewBox="0 0 36 25" fill="none" xmlns="http://www.w3.org/2000/svg">
<path d="M2.08019 12.072L1.91282 12.4644L2.08019 12.8567C3.46761 16.1092 5.57919 18.7705 8.40613 20.8223C11.256 22.8907 14.464 23.9287 18 23.9287C21.536 23.9287 24.744 22.8907 27.5939 20.8223C30.4208 18.7705 32.5324 16.1092 33.9198 12.8567L34.0872 12.4644L33.9198 12.072C32.5324 8.81951 30.4208 6.15827 27.5939 4.10647C24.744 2.03799 21.536 1 18 1C14.464 1 11.256 2.03799 8.40613 4.10647C5.57919 6.15827 3.46761 8.81951 2.08019 12.072ZM18 18.9719C19.7945 18.9719 21.3514 18.335 22.611 17.0754C23.8706 15.8157 24.5076 14.2588 24.5076 12.4644C24.5076 10.6699 23.8706 9.113 22.611 7.85337C21.3514 6.59374 19.7945 5.9568 18 5.9568C16.2055 5.9568 14.6486 6.59374 13.389 7.85337C12.1294 9.113 11.4924 10.6699 11.4924 12.4644C11.4924 14.2588 12.1294 15.8157 13.389 17.0754C14.6486 18.335 16.2055 18.9719 18 18.9719ZM18 14.5745C17.3983 14.5745 16.9192 14.3754 16.5041 13.9603C16.089 13.5452 15.8898 13.0661 15.8898 12.4644C15.8898 11.8626 16.089 11.3835 16.5041 10.9684C16.9192 10.5534 17.3983 10.3542 18 10.3542C18.6017 10.3542 19.0808 10.5534 19.4959 10.9684C19.911 11.3835 20.1101 11.8626 20.1101 12.4644C20.1101 13.0661 19.911 13.5452 19.4959 13.9603C19.0808 14.3754 18.6017 14.5745 18 14.5745ZM24.6157 17.2787C22.5958 18.5887 20.398 19.2397 18 19.2397C15.5787 19.2397 13.3767 18.5878 11.37 17.2799C9.4893 16.0542 8.01659 14.4536 6.94417 12.4644C8.01665 10.4764 9.49388 8.87599 11.3843 7.65003C13.4042 6.34006 15.602 5.68898 18 5.68898C20.4213 5.68898 22.6233 6.34094 24.63 7.64879C26.5111 8.87479 27.9741 10.4754 29.0277 12.4643C27.9741 14.4521 26.5066 16.0525 24.6157 17.2787Z" fill="#DFDEDC" stroke="white" stroke-width="2"/>
</svg>
