<svg width="36" height="36" viewBox="0 0 36 36" fill="none" xmlns="http://www.w3.org/2000/svg">
<path d="M30.6944 33.7071L31.4097 34.4224L32.1167 33.6989L33.7152 32.0632L34.4066 31.3558L33.7066 30.6567L5.30516 2.29243L4.59805 1.58625L3.89141 2.29289L2.29289 3.89141L1.58579 4.59851L2.29289 5.30562L8.76423 11.777H5.37918H4.37918V12.777V21.6989V22.6989H5.37918H10.9129L18.055 29.8409L19.7621 31.548V29.1338V22.748L23.283 26.2903C23.1972 26.3293 23.1104 26.3662 23.0227 26.4009C22.5159 26.6012 21.9901 26.7845 21.4449 26.9504L20.7361 27.1661V27.9071V30.2119V31.4663L21.9589 31.1868C22.8891 30.9741 23.7874 30.6748 24.6528 30.2887C25.2514 30.0216 25.823 29.7187 26.367 29.3797L30.6944 33.7071ZM29.3561 25.0826L30.2376 25.9641L30.9069 24.9123C31.6513 23.7426 32.212 22.5021 32.5861 21.1929C32.9586 19.8892 33.145 18.5575 33.145 17.2007C33.145 13.8304 32.1038 10.8273 30.0262 8.23032C27.9487 5.63341 25.2463 3.95705 21.9563 3.21415L20.7361 2.93861V4.18959V6.49442V7.29834L21.5212 7.47107C23.7657 7.96487 25.5373 9.11284 26.8787 10.9349C28.2368 12.7797 28.9145 14.8573 28.9145 17.2007C28.9145 18.1121 28.8064 18.9971 28.5912 19.8578C28.3791 20.706 28.0502 21.5092 27.6028 22.2699L27.2104 22.9369L27.7576 23.4841L29.3561 25.0826ZM24.3747 20.1012L25.4921 21.2185L26.0235 19.7304C26.1666 19.3299 26.2742 18.921 26.3461 18.5045C26.4179 18.0879 26.4535 17.6655 26.4535 17.2379C26.4535 15.7698 26.0768 14.4014 25.325 13.1532C24.5648 11.8909 23.5025 10.9383 22.16 10.3099L20.7361 9.6434V11.2156V16.0483V16.4625L21.029 16.7554L24.3747 20.1012ZM18.055 13.7815L19.7621 15.4886V13.0743V5.34201V2.92779L18.055 4.6349L14.1888 8.50107L13.4817 9.20818L14.1888 9.91529L18.055 13.7815Z" fill="#FF8A00" stroke="white" stroke-width="2"/>
</svg>
