<svg width="34" height="37" viewBox="0 0 34 37" fill="none" xmlns="http://www.w3.org/2000/svg">
<path d="M19.3333 33.1667V34.4177L20.5536 34.1421C24.2149 33.3154 27.2198 31.4511 29.5309 28.5622C31.842 25.6733 33 22.334 33 18.5833C33 14.8327 31.842 11.4934 29.5309 8.60447C27.2198 5.71558 24.2149 3.85131 20.5536 3.02456L19.3333 2.74902V4V6.58333V7.34508L20.0677 7.54741C22.5814 8.23996 24.6028 9.6017 26.1631 11.648C27.7242 13.6953 28.5 15.9959 28.5 18.5833C28.5 21.1686 27.7186 23.4601 26.1465 25.4923C24.5687 27.532 22.5475 28.9034 20.056 29.6226L19.3333 29.8312V30.5833V33.1667ZM1 23.625V24.625H2H8.25245L16.2929 32.6654L18 34.3725V31.9583V5.29167V2.87745L16.2929 4.58456L8.25245 12.625H2H1V13.625V23.625ZM18.5 25.625V26.9882L19.8003 26.5788C21.5132 26.0396 22.9024 25.0156 23.9434 23.533C24.9773 22.0604 25.5 20.4156 25.5 18.625C25.5 16.8139 24.9885 15.1566 23.9683 13.6812C22.9371 12.1899 21.5354 11.1658 19.7953 10.6279L18.5 10.2276V11.5833V25.625Z" fill="#FF8A00" stroke="white" stroke-width="2"/>
</svg>
