<svg width="36" height="34" viewBox="0 0 36 34" fill="none" xmlns="http://www.w3.org/2000/svg">
<path d="M13.5624 32.1568L13.6962 33H14.55H21.45H22.3038L22.4376 32.1568L23.0946 28.0178C23.4801 27.8605 23.8618 27.6653 24.2394 27.435C24.5867 27.2233 24.9133 27.0066 25.2185 26.7847L29.0964 28.5593L29.9301 28.9408L30.3824 28.1433L33.8699 21.9933L34.3118 21.2139L33.5855 20.6893L30.0238 18.117C30.0321 18.0231 30.0384 17.9284 30.0427 17.8329C30.0558 17.5443 30.0625 17.2666 30.0625 17C30.0625 16.7335 30.0558 16.4502 30.0428 16.1503C30.0384 16.0492 30.032 15.9492 30.0234 15.8503L33.5805 13.3142L34.3146 12.7909L33.8699 12.0067L30.3824 5.85672L29.9301 5.05916L29.0964 5.44069L25.2438 7.20375C24.9226 6.96201 24.5705 6.74025 24.1904 6.53697C23.8171 6.33731 23.4531 6.16055 23.0987 6.00792L22.4376 1.84323L22.3038 1H21.45H14.55H13.6952L13.5622 1.84444L12.9037 6.02604C12.5409 6.17564 12.1742 6.35763 11.8039 6.56926C11.4409 6.77668 11.1009 6.99239 10.785 7.21693L6.90362 5.44069L6.0699 5.05916L5.61763 5.85672L2.13013 12.0067L1.69085 12.7814L2.40961 13.3071L5.97455 15.9148C5.96695 16.0045 5.96121 16.0955 5.95719 16.1878C5.94423 16.486 5.9375 16.7572 5.9375 17C5.9375 17.2428 5.94423 17.514 5.95719 17.8122C5.96121 17.9045 5.96695 17.9955 5.97455 18.0852L2.40961 20.6929L1.69085 21.2186L2.13013 21.9933L5.61763 28.1433L6.0699 28.9408L6.90362 28.5593L10.785 26.7831C11.1009 27.0076 11.4409 27.2233 11.8039 27.4307C12.1755 27.6431 12.5412 27.8297 12.9008 27.9887L13.5624 32.1568ZM20.7429 19.7429C19.9814 20.5043 19.0862 20.875 18 20.875C16.9138 20.875 16.0186 20.5043 15.2571 19.7429C14.4957 18.9814 14.125 18.0862 14.125 17C14.125 15.9138 14.4957 15.0186 15.2571 14.2571C16.0186 13.4957 16.9138 13.125 18 13.125C19.0862 13.125 19.9814 13.4957 20.7429 14.2571C21.5043 15.0186 21.875 15.9138 21.875 17C21.875 18.0862 21.5043 18.9814 20.7429 19.7429Z" fill="#FF8A00" stroke="white" stroke-width="2"/>
</svg>
